<?xml version="1.0" encoding="utf-8"?>
<!-- Generator: Adobe Illustrator 19.0.0, SVG Export Plug-In . SVG Version: 6.00 Build 0)  -->
<svg version="1.1" id="Layer_1" xmlns="http://www.w3.org/2000/svg" xmlns:xlink="http://www.w3.org/1999/xlink" x="0px" y="0px"
	 viewBox="0 0 744.5 744.5" style="enable-background:new 0 0 744.5 744.5;" xml:space="preserve">
<style type="text/css">
	.st0{clip-path:url(#XMLID_78_);fill:url(#XMLID_79_);}
	.st1{clip-path:url(#XMLID_78_);}
	.st2{fill:#191F4A;}
	.st3{fill:#30376B;}
	.st4{fill:#FFFFFF;}
	.st5{fill:#DB0D0D;}
	.st6{fill:#FFA659;}
	.st7{fill:#FC7D46;}
	.st8{fill:#FFD8B5;}
	.st9{fill:#FF8B38;}
	.st10{fill:#FFC338;}
	.st11{fill:#E6E6E6;}
</style>
<g id="XMLID_2_">
	<defs>
		<circle id="XMLID_1_" cx="372.2" cy="372.2" r="366.7"/>
	</defs>
	<clipPath id="XMLID_78_">
		<use xlink:href="#XMLID_1_"  style="overflow:visible;"/>
	</clipPath>
	
		<linearGradient id="XMLID_79_" gradientUnits="userSpaceOnUse" x1="261.0055" y1="1484.3795" x2="996.7987" y2="1484.3795" gradientTransform="matrix(-3.003385e-005 0.9955 -1 3.003394e-005 1855.2222 -253.4111)">
		<stop  offset="0" style="stop-color:#258FF8"/>
		<stop  offset="1" style="stop-color:#D53B69"/>
	</linearGradient>
	<path id="XMLID_4_" class="st0" d="M373.3,739C170.5,740.3,5,577.5,3.6,375.2S165.6,7.8,368.4,6.5S736.6,168,738,370.3
		C739.4,572.5,576.1,737.6,373.3,739z"/>
	<g id="XMLID_6_" class="st1">
		<path id="XMLID_65_" class="st2" d="M372.3,237.7c-41.2,0-56.7-28.1-70.3-52.8c-9.5-17.3-17.9-32.6-33.9-32.6
			c-20.2,0-43.1,30.3-70.5,66.5c-30.3,40.1-65.9,87-111.3,110.1c-6,3-10.7,6.8-14.2,11c-3.7,4.7-5.8,10-6.1,15.8
			c-0.3,5.9,1.1,12.5,4.6,19.3c4.8,9.4,13.1,19.2,25.5,29.1c0.9,0.7,1.3,1.6,1.7,2.6c20.9,12.6,47.9,24.6,81.8,35.4
			c6.7-20.7,12.8-36.7,14.3-40.1c0.4-7.7-0.6-19.9-1.8-34.1c-3.6-40.8-8.2-96.2,18.3-111.5c25.1-14.5,67.2,25,94.3,50.3
			c8.9,8.2,16,14.9,19.7,17.2c9.5,5.7,29.3,8.6,49.1,8.6c19.2,0,38-2.8,47-8.6c3.7-2.3,10.5-8.8,18.9-16.7
			c27.1-25.3,69.8-65.3,94.9-50.8c26.6,15.4,21.8,70.8,18.3,111.5c-1.2,14.2-2.2,26.4-1.8,34.1c1.3,3.5,7.6,19.4,14.3,40.2
			c33.8-10.7,60.8-22.8,81.7-35.3c0.2-1,0.8-1.9,1.7-2.7c12.4-9.9,20.7-19.7,25.5-29.1c3.5-6.8,5-13.4,4.6-19.3
			c-0.3-5.8-2.5-11.1-6.1-15.8c-3.3-4.2-8.1-8-14.2-11c-45.5-23.1-81-70-111.3-110.1c-27.4-36.2-50.4-66.5-70.5-66.5
			c-15.8,0-24.3,15.4-33.9,32.6C429,209.5,413.5,237.7,372.3,237.7L372.3,237.7z"/>
		<path id="XMLID_64_" class="st3" d="M372.3,237.7c-41.2,0-56.7-28.1-70.3-52.8c-9.5-17.3-17.9-32.6-33.9-32.6
			c-20.2,0-43.1,30.3-70.5,66.5c-28.1,37.1-60.6,80.1-101.4,104.6c21.7,26,55.4,48.2,97.3,64.8c-0.3-6-1-12.9-1.6-20.4
			c-3.6-40.8-8.2-96.2,18.3-111.5c25.1-14.5,67.2,25,94.3,50.3c8.9,8.2,16,14.9,19.7,17.2c9.5,5.7,29.3,8.6,49.1,8.6
			c19.2,0,38-2.8,47-8.6c3.7-2.3,10.5-8.8,18.9-16.7c27.1-25.3,69.8-65.3,94.9-50.8c26.6,15.4,21.8,70.8,18.3,111.5
			c-0.7,7.2-1.2,13.9-1.6,19.8c41.6-16.7,74.9-39,96.4-64.8c-40.3-24.5-72.6-67.2-100.5-104.1c-27.4-36.2-50.4-66.5-70.5-66.5
			c-15.8,0-24.3,15.4-33.9,32.6C429,209.5,413.5,237.7,372.3,237.7L372.3,237.7z"/>
		<path id="XMLID_63_" class="st2" d="M335.8,139.9c-6.2,1.2-11.5,2.6-15.6,3.8c4.2,7.1,7.8,14.8,11.4,22.3
			c9.7,20.8,18.8,40.2,40.8,40.2c22,0,31.1-19.5,40.8-40.2c3.6-7.5,7.1-15.2,11.4-22.3c-4-1.2-9.1-2.6-15.4-3.7
			c-9.7-1.9-22.1-3.3-36.8-3.3C357.8,136.5,345.5,138.1,335.8,139.9L335.8,139.9z"/>
		<path id="XMLID_62_" class="st4" d="M349,267.8c-0.7,0.2-1.2,0.6-1.8,1c-0.8,0.8-1.1,1.8-1.1,2.8c0,1,0.4,2,1.1,2.8
			c0.8,0.8,1.8,1.2,2.8,1.2c0.9,0,1.9-0.3,2.7-1l0.1-0.1c1.8-1.8,4.8-1.8,6.7,0l5.6,5.6c1.8,1.8,1.8,4.8,0,6.7l-5.6,5.6l0,0
			c-1.8,1.8-4.8,1.8-6.6,0c-0.8-0.8-1.8-1.1-2.8-1.1c-1,0-2,0.4-2.8,1.2c-0.8,0.8-1.1,1.8-1.1,2.8c0,1,0.3,2,1.1,2.8
			c0.6,0.6,1.1,0.9,1.7,1c0.7,0.2,1.3,0.2,2,0c0.7-0.2,1.4-0.2,2.2,0c2.6,0.6,4,3.1,3.5,5.7c-0.1,0.7-0.1,1.3,0,2.1
			c0.2,0.6,0.6,1.2,1,1.7c0.8,0.8,1.8,1.1,2.8,1.1c1,0,2-0.3,2.8-1.1l0,0c0.8-0.8,1.1-1.8,1.2-2.8c0-0.9-0.3-1.9-1-2.7l-0.1-0.1
			c-1.8-1.8-1.8-4.8,0-6.7l5.6-5.6c1.8-1.8,4.8-1.8,6.7,0l5.6,5.6l0,0c1.8,1.8,1.8,4.8,0,6.6c-0.8,0.8-1.1,1.8-1.1,2.8
			c0,1,0.4,2,1.2,2.8c0.8,0.8,1.8,1.1,2.8,1.1c1,0,2-0.3,2.8-1.1c0.6-0.6,0.9-1.1,1-1.7c0.2-0.7,0.2-1.3,0-2c-0.2-0.7-0.2-1.4,0-2.2
			c0.6-2.6,3.1-4,5.7-3.5c0.7,0.1,1.3,0.1,2.1,0c0.6-0.2,1.2-0.6,1.7-1c0.8-0.8,1.1-1.8,1.1-2.8c0-1-0.3-2-1.1-2.8
			c-0.8-0.8-1.8-1.2-2.8-1.2c-1,0-1.9,0.3-2.7,1l-0.1,0.1c-1.8,1.8-4.8,1.8-6.7,0l-5.6-5.6c-1.8-1.8-1.8-4.8,0-6.7l5.6-5.6l0,0
			c1.8-1.8,4.8-1.8,6.6,0c0.8,0.8,1.8,1.1,2.8,1.1c1,0,2-0.4,2.8-1.2l0,0c0.8-0.8,1.1-1.8,1.1-2.8s-0.3-2-1.1-2.8
			c-0.6-0.6-1.1-0.9-1.7-1c-0.7-0.2-1.3-0.2-2,0c-0.7,0.2-1.4,0.2-2.2,0c-2.6-0.6-4-3.1-3.5-5.7c0.1-0.7,0.1-1.3,0-2.1
			c-0.2-0.7-0.6-1.2-1-1.7c-0.8-0.8-1.8-1.1-2.8-1.1c-1,0-2,0.3-2.8,1.1s-1.2,1.8-1.2,2.8c0,0.9,0.3,1.9,1,2.7l0.1,0.1
			c1.8,1.8,1.8,4.8,0,6.7l-5.6,5.6c-1.8,1.8-4.8,1.8-6.7,0l-5.6-5.6l0,0c-1.8-1.8-1.8-4.8,0-6.6c0.8-0.8,1.1-1.8,1.1-2.8
			s-0.4-2-1.2-2.8c-0.8-0.8-1.8-1.1-2.8-1.1l0,0c-1,0-2,0.4-2.8,1.2c-0.6,0.6-0.9,1.1-1,1.7c-0.2,0.7-0.2,1.3,0,2
			c0.2,0.7,0.2,1.4,0,2.2c-0.6,2.6-3.1,4-5.7,3.5C350.3,267.6,349.7,267.7,349,267.8L349,267.8z"/>
		<path id="XMLID_61_" class="st5" d="M392.8,678.4l0.2,0.3c1,1.8,1.7,3.7,2.2,5.7c15.5-2.1,39.8-0.6,63.6,1
			c28.5,1.9,56.2,3.7,64.3-0.8c1.8-1,2.9-2.3,3.3-4c0.6-1.7,0.4-3.8,0-6l0,0c-0.6-2.6-1.7-5.3-3.2-8.2c-5.2-9.8-15.2-19.5-24.7-23.2
			C468.5,661,432.2,674.8,392.8,678.4L392.8,678.4z"/>
		<path id="XMLID_60_" class="st5" d="M363.2,679.2c-1.3,1.1-2.5,2.6-3.3,4c-1.1,1.9-1.7,4.2-1.7,6.6c0,3.9,1.6,7.4,4.1,9.8
			c2.6,2.6,6,4.1,10,4.1c3.9,0,7.5-1.6,10-4.1c2.6-2.6,4.1-6,4.1-9.8c0-2.5-0.6-4.7-1.7-6.6c-0.9-1.6-2-2.9-3.3-4
			c-3,0.1-6,0.2-9,0.2C369.3,679.4,366.3,679.3,363.2,679.2L363.2,679.2z"/>
		<path id="XMLID_59_" class="st6" d="M361,669.7c0.8-0.1,1.6-0.1,2.3,0.1c2.9,0.1,5.9,0.2,8.9,0.2c3,0,5.9-0.1,8.9-0.2
			c0.8-0.2,1.6-0.2,2.3-0.1c42.1-2.2,80.7-16.6,112.1-35.5c44.5-26.9,74.2-62.4,78.4-84.8C582,507,544.5,411.5,542,405.1
			c-0.2-0.6-0.4-1.1-0.4-1.7c-0.7-8.4,0.4-21.3,1.8-36.2c3.3-38.3,7.8-90.3-13.6-102.6c-19.2-11.1-58.8,26-83.9,49.5
			c-8.8,8.2-15.9,14.9-20.4,17.7c-10.7,6.8-31.4,10-52,10c-21.4,0-43-3.5-53.9-9.9c-4.6-2.8-12-9.7-21.3-18.4
			c-25.1-23.4-64.2-59.9-83.2-49c-21.4,12.4-16.9,64.3-13.6,102.6c1.3,14.9,2.5,27.9,1.8,36.2l0,0c0,0.4-0.1,0.9-0.3,1.3
			c-0.1,0.3-40.4,100.7-32.2,144.6c4.2,22.5,34,57.9,78.4,84.8C280.3,653,319,667.5,361,669.7L361,669.7z"/>
		<path id="XMLID_58_" class="st7" d="M361,669.7c0.8-0.1,1.6-0.1,2.3,0.1c2.9,0.1,5.9,0.2,8.9,0.2c3,0,5.9-0.1,8.9-0.2
			c0.8-0.2,1.6-0.2,2.3-0.1c42.1-2.2,80.7-16.6,112.1-35.5c44.5-26.9,74.2-62.4,78.4-84.8c6-32.4-14.4-95.7-25.5-126.7
			c4.2,20.9,18.4,96.9,9,125.2c-10.9,33-80.7,92-184.9,92.1c-104.2-0.1-173.9-59.2-184.9-92.1C176.9,514.8,198,417.2,198,417.2
			c-10.5,28.3-33.9,97.7-27.4,132c4.2,22.5,34,57.9,78.4,84.8C280.3,653,319,667.5,361,669.7L361,669.7z"/>
		<path id="XMLID_57_" class="st4" d="M214.3,389.8c11.8-16.4,41.2-32.8,60.4-39c0,0-12.6,2.6-15.6-4.9c-3-7.5-1.6-16.2-1.6-16.2
			s-11.6,1.8-15.6-7c-4-8.9-3.6-17.4-3.6-17.4s-17.5-16.6-22.1-13.9C211.7,294.3,197,357.8,214.3,389.8L214.3,389.8z"/>
		<path id="XMLID_56_" class="st4" d="M530.3,389.8c-11.8-16.4-41.2-32.8-60.4-39c0,0,12.6,2.6,15.6-4.9c3-7.5,1.6-16.2,1.6-16.2
			s11.6,1.8,15.6-7c4-8.9,3.6-17.4,3.6-17.4s17.5-16.6,22.1-13.9C532.8,294.3,547.5,357.8,530.3,389.8L530.3,389.8z"/>
		<path id="XMLID_55_" class="st4" d="M361,669.7c0.8-0.1,1.6-0.1,2.3,0.1c2.9,0.1,5.9,0.2,8.9,0.2c3,0,5.9-0.1,8.9-0.2
			c0.8-0.2,1.6-0.2,2.3-0.1c42.1-2.2,80.7-16.6,112.1-35.5c44.5-26.9,74.2-62.4,78.4-84.8c0.7-3.8,1-7.9,1.1-12.5
			c-5.8-13.5-19.8-20.8-37.2-17.5c-21.5,4.1-44.1,26.6-71.8,26.6c-36.9,0-47.1-28.2-94.9-28.2S313.2,546,276.3,546
			c-27.6,0-50.3-22.5-71.8-26.6c-15.5-3-28.3,2.6-35.1,13.4c-0.2,6.1,0.1,11.7,1,16.6c4.2,22.5,34,57.9,78.4,84.8
			C280.3,653,319,667.5,361,669.7L361,669.7z"/>
		<path id="XMLID_54_" class="st8" d="M361,669.7c0.8-0.1,1.6-0.1,2.3,0.1c2.9,0.1,5.9,0.2,8.9,0.2c3,0,5.9-0.1,8.9-0.2
			c0.8-0.2,1.6-0.2,2.3-0.1c42.1-2.2,80.7-16.6,112.1-35.5c44.5-26.9,74.2-62.4,78.4-84.8c0.7-3.8,1-7.9,1.1-12.5
			c-2.9-6.8-7.9-12-14.5-15.2c-0.1,10.5-1,19.6-3.1,26.2c-10.9,33-80.7,92-184.9,92.1c-104.2-0.1-173.9-59.2-184.9-92.1
			c-2.2-6.9-3.1-16.5-3.1-27.4c-6.5,2.2-11.7,6.6-15.3,12.3c-0.2,6.1,0.1,11.7,1,16.6c4.2,22.5,34,57.9,78.4,84.8
			C280.3,653,319,667.5,361,669.7L361,669.7z"/>
		<path id="XMLID_53_" class="st5" d="M250.6,646c-8.7,3.5-17.5,10-23.8,17c-3.7,4-6.4,8.1-7.8,11.9c-1.1,3-1.2,5.6-0.1,7.5
			c0.6,0.9,1.3,1.7,2.7,2.3c8.1,4.3,35.9,2.6,64.3,0.8c23.8-1.6,48.1-3.1,63.6-1c0.4-2,1.2-3.9,2.2-5.6l0.2-0.3
			C314.3,674.9,279.8,662.5,250.6,646L250.6,646z"/>
		<path id="XMLID_52_" class="st5" d="M390.2,704.9c0.3,13.9,6.2,21.7,13.4,26c6.6,3.8,14.3,5,20.2,5.3c0.2-0.9,0.4-1.9,0.6-2.8
			c0.9-6.4-0.1-13.6-3.7-20.2c-3.5-6.6-9.6-12.4-18.7-15.9c-2.1-0.8-4.3-1.4-6.8-2C394.2,698.9,392.6,702.1,390.2,704.9L390.2,704.9
			z"/>
		<path id="XMLID_51_" class="st5" d="M349.4,695.3c-2.5,0.6-4.7,1.2-6.8,2c-9.2,3.6-15.3,9.4-18.7,15.9c-3.5,6.6-4.6,13.8-3.7,20.2
			c0.1,1,0.3,1.9,0.6,2.8c5.9-0.3,13.6-1.6,20.2-5.3c7.2-4.2,13-12,13.4-26C352,702.1,350.3,698.9,349.4,695.3L349.4,695.3z"/>
		<path id="XMLID_50_" class="st6" d="M576.7,975.4c25.1-4.1,47.1-14.5,64.8-29.2c16.3-13.6,28.7-30.8,36.3-50.1
			c7.6-19.4,10.4-41,7-63.3c-3-20.6-11.3-41.8-25.5-62.4c2.1,27.3-1.6,51.4-9,70.9c-9.7,25.1-26,42.5-45,49
			c-8.5,44-23.7,74.5-29.3,84.6C576.2,975,576.4,975.2,576.7,975.4L576.7,975.4z"/>
		<path id="XMLID_49_" class="st4" d="M572.3,984.1c-0.2-0.1-0.3-0.3-0.4-0.4c-1.4-1.3-2.9-2.6-4.5-3.7c-0.1-0.1-0.2-0.2-0.4-0.3
			c-2.7-2-5.7-3.7-8.8-5.1c-7.2-3.3-15.6-5.5-25-5.7c-6.2-0.1-12,1.2-17.3,3.7c-4.6,2.1-8.8,5.1-12.5,8.7c2.5,2.7,4.6,5.6,6.5,8.6
			c6.1,9.9,9.4,21.4,9.1,32.6c-0.1,7-1.7,14-4.6,20.6c1.2,1.4,3.1,2.6,5.3,3.5c3.8,1.4,8.7,2.1,14.5,2.1c6.5,0,11.1-1.2,14.5-3.3
			c0.6-0.3,1.1-0.8,1.6-1.1c0.4-0.7,1-1.2,1.6-1.6c1-1.1,1.7-2.3,2.3-3.6c1.2-2.6,1.7-5.5,1.7-8.4c0-5.2-1.4-10.4-3.5-13.4
			c-1.4-2.2-0.8-5.1,1.4-6.5c2.2-1.4,5.1-0.8,6.5,1.4c2.9,4.5,5,11.4,4.9,18.6c0,4.1-0.8,8.2-2.6,12.1c-0.3,0.7-0.6,1.2-0.9,1.9
			c4.3,1.2,9.1,1.2,13.1,0.3c4.8-1,8.5-2.9,9.6-4.8l0.1-0.1c2.7-5.7,4-11.8,4.1-17.9c0.2-9.5-2.5-19.2-7.7-27.5
			C578.6,990.9,575.7,987.4,572.3,984.1L572.3,984.1z"/>
		<path id="XMLID_48_" class="st6" d="M596.5,886.1c0-0.2,0.1-0.3,0.1-0.6c0.8-4.2,1.4-8.6,2.1-13c6.6-47.2-30.2-74.8-45.8-84.2
			c-0.1,11-0.9,22.2-2.1,33.1c-6.9,60.1-29.1,117.6-46.9,147.3c2.6-1.8,5.2-3.3,8-4.7c6.5-3,13.6-4.8,21.4-4.6
			c10.8,0.2,20.4,2.6,28.7,6.5c2.1,1,4.2,2.1,6.2,3.3C574.1,958.7,588.5,928.9,596.5,886.1L596.5,886.1z"/>
		<path id="XMLID_47_" class="st9" d="M62.4,379.7l-0.2-0.4c-4.2-8.4-6-16.5-5.6-24.1c0.4-7.8,3.2-14.9,8.2-21.1
			c4.2-5.3,10-9.9,17.3-13.6c43.5-22.1,78.3-68.1,108.1-107.4c28.9-38.2,53.1-70.3,78-70.3c21.4,0,31.1,17.7,42.1,37.4
			c12.4,22.4,26.4,47.9,62.2,47.9c35.7,0,49.7-25.5,62.2-47.9c10.9-19.8,20.7-37.4,42-37.4c24.8,0,49.1,32.1,78,70.3
			c29.7,39.3,64.5,85.3,108.1,107.4c7.2,3.7,13,8.2,17.3,13.6c4.9,6.2,7.7,13.4,8.2,21.1c0.4,7.6-1.3,15.7-5.6,24.1l-0.3,0.7
			c10.5-10.6,16.8-21.1,19.5-30.6c2.7-9.9,1.4-18.9-3.5-26.6c-3.9-6.2-10.3-11.7-18.7-15.9c-51.3-25.7-89.8-75.1-122.5-116.9
			c-29.6-38.1-54.4-69.8-77.8-69.8c-34.3,0-46.5,25.9-57.7,49.9c-11,23.6-21.4,45.7-49.2,45.7s-38.2-22.1-49.2-45.7
			c-11.3-24.1-23.4-49.9-57.7-49.9c-23.4,0-48,31.6-77.8,69.8c-32.9,41.8-71.3,91.1-122.6,116.9c-8.5,4.2-14.7,9.6-18.6,15.8
			c-4.8,7.7-6.1,16.8-3.5,26.6C45.7,358.7,52,369.1,62.4,379.7L62.4,379.7z"/>
		<path id="XMLID_46_" class="st10" d="M90.4,315.9c39.7-23.4,71.9-66.1,99.7-102.8c28.9-38.2,53.1-70.3,78-70.3
			c21.4,0,31.1,17.7,42.1,37.4c12.4,22.4,26.4,47.9,62.2,47.9c35.7,0,49.7-25.5,62.2-47.9c10.9-19.8,20.7-37.4,42-37.4
			c24.8,0,49.1,32.1,78,70.3c27.6,36.4,59.6,78.7,98.7,102.3c4.1-5.7,7.6-11.5,10.6-17.5c-43.7-27.2-77.6-70.6-106.7-108.2
			c-29.6-38.1-54.4-69.8-77.8-69.8c-34.3,0-46.5,25.9-57.7,49.9c-11,23.6-21.4,45.7-49.2,45.7c-27.9,0-38.2-22.1-49.2-45.7
			c-11.3-24.1-23.4-49.9-57.7-49.9c-23.4,0-48,31.6-77.8,69.8c-29.4,37.8-63.7,81.7-107.9,108.7C82.7,304.5,86.3,310.2,90.4,315.9
			L90.4,315.9z"/>
		<path id="XMLID_45_" class="st11" d="M378,585.5c0,3.9,2,7,5.1,9.4c3.1,2.3,7.5,3.9,12.3,4.6c4.9,0.7,10.3,0.4,15.3-0.9
			c8-2.1,15.2-6.7,18.2-14.3c1-2.5,3.7-3.6,6.1-2.6c2.5,1,3.6,3.7,2.6,6.1c-4.3,10.6-13.9,17-24.6,19.8c-6.2,1.6-12.8,1.9-18.8,1.1
			c-6.2-0.9-12-3-16.5-6.2c-1.6-1.1-3-2.5-4.2-3.9c-1.2,1.4-2.6,2.8-4.2,3.9c-4.5,3.3-10.3,5.5-16.5,6.2c-6,0.9-12.7,0.4-18.8-1.1
			c-10.7-2.8-20.3-9.2-24.6-19.8c-1-2.5,0.2-5.1,2.6-6.1c2.5-1,5.1,0.2,6.1,2.6c3.1,7.6,10.3,12.1,18.2,14.3
			c5,1.3,10.4,1.6,15.3,0.9c4.8-0.7,9-2.2,12.3-4.6c3.1-2.3,5.1-5.5,5.1-9.4v-15.2c0-2.6,2.1-4.7,4.7-4.7c2.6,0,4.7,2.1,4.7,4.7
			L378,585.5L378,585.5z"/>
		<path id="XMLID_44_" class="st4" d="M230.4,1043.2c-2.9-6.6-4.3-13.6-4.6-20.6c-0.2-11.3,2.9-22.7,9.1-32.6c1.9-3,4-5.9,6.5-8.6
			c-3.8-3.6-7.9-6.6-12.5-8.7c-5.2-2.5-11-3.8-17.3-3.7c-9.4,0.2-17.7,2.2-25,5.7c-3.1,1.4-6.1,3.2-8.8,5.1
			c-0.1,0.1-0.2,0.2-0.3,0.3c-5.7,4.1-10.3,9.2-13.7,14.8c-5.2,8.4-7.9,18.1-7.7,27.5c0.1,6.1,1.4,12.3,4.1,17.9l0.1,0.1
			c1.1,1.9,4.8,3.8,9.6,4.8c4.1,0.9,8.8,0.9,13.1-0.3c-0.3-0.6-0.7-1.2-0.9-1.9c-1.8-3.9-2.6-8-2.6-12.1c-0.1-7.1,2.1-14.2,4.9-18.6
			c1.4-2.2,4.3-2.8,6.5-1.4c2.2,1.4,2.8,4.3,1.4,6.5c-2,3.1-3.6,8.1-3.5,13.4c0,2.9,0.6,5.8,1.7,8.4c0.6,1.2,1.3,2.5,2.3,3.6
			c0.7,0.3,1.1,0.9,1.6,1.6c0.4,0.4,1,0.8,1.6,1.1c3.3,2.1,8,3.5,14.5,3.3c5.8,0,10.7-0.8,14.5-2.1
			C227.3,1045.8,229.1,1044.5,230.4,1043.2L230.4,1043.2z"/>
		<path id="XMLID_43_" class="st4" d="M403.2,1039.2c0.1,0.1,0.1,0.3,0.2,0.4l0.1,0.3l0.1,0.2c1.8,3.2,6.4,5.3,11.7,6.1
			c4.2,0.6,8.8,0.3,13-0.9c-0.9-1.4-1.7-3-2.3-4.6c-1.6-3.9-2.2-8-2.1-12c0.1-7.1,2.3-13.9,5.7-18.1c1.7-2,4.6-2.3,6.6-0.7
			c2,1.7,2.3,4.6,0.7,6.6c-2.1,2.6-3.6,7.1-3.6,12.1c0,2.9,0.4,5.8,1.4,8.5c0.8,2,1.9,3.8,3.5,5.5c0.9,0.3,1.8,1,2.3,2
			c3.3,2.3,7.9,3.9,14.4,3.9c6.5,0,11.1-1.2,14.5-3.3c0.6-0.3,1.1-0.8,1.6-1.1c0.4-0.7,1-1.2,1.6-1.6c1-1.1,1.7-2.3,2.3-3.6
			c1.2-2.6,1.7-5.5,1.7-8.4c0-5.2-1.4-10.4-3.5-13.4c-1.4-2.2-0.8-5.1,1.4-6.5c2.2-1.4,5.1-0.8,6.5,1.4c2.9,4.5,5,11.5,4.9,18.6
			c0,4.1-0.8,8.2-2.6,12.1c-0.3,0.7-0.6,1.2-0.9,1.9c4.3,1.2,9.1,1.2,13.1,0.3c4.5-0.9,7.9-2.7,9.4-4.5c0-0.1,0.1-0.1,0.2-0.2
			l0.1-0.1l0.1-0.1c2.7-5.7,4-11.8,4.1-17.9c0.2-9.5-2.5-19.2-7.7-27.5c-2.1-3.3-4.6-6.5-7.4-9.4c-0.3-0.2-0.7-0.4-0.9-0.7
			c-0.3-0.3-0.7-0.7-0.9-1.1c-0.9-0.9-1.9-1.7-2.9-2.5l-0.1-0.1c-0.1-0.1-0.2-0.1-0.2-0.2c-3.1-2.5-6.7-4.7-10.5-6.5
			c-7.2-3.3-15.6-5.5-25-5.7c-6.8-0.1-13.1,1.6-18.7,4.5c-3.8,2-7.4,4.6-10.6,7.5c-0.1,0.1-0.2,0.2-0.3,0.3c-5.2,5-9.7,11-13.3,17.5
			c-5.8,10.6-8.9,22-9.1,31C401.8,1033.5,402.2,1036.7,403.2,1039.2L403.2,1039.2z"/>
		<path id="XMLID_42_" class="st4" d="M255.4,980.9c-0.1,0.1-0.1,0.1-0.2,0.2l-0.1,0.1c-1,0.8-2,1.7-2.9,2.5
			c-0.2,0.4-0.6,0.8-0.9,1.1c-0.3,0.2-0.6,0.4-0.9,0.7c-2.8,2.9-5.3,6-7.4,9.4c-5.2,8.4-7.9,18.1-7.7,27.5
			c0.1,6.1,1.4,12.3,4.1,17.9l0.1,0.1l0.1,0.1c0.1,0.1,0.1,0.1,0.2,0.2c1.3,1.8,4.9,3.5,9.4,4.5c4.1,0.9,8.8,0.9,13.1-0.3
			c-0.3-0.6-0.7-1.2-0.9-1.9c-1.8-3.9-2.6-8-2.6-12.1c-0.1-7.1,2.1-14.2,4.9-18.6c1.4-2.2,4.3-2.8,6.5-1.4c2.2,1.4,2.8,4.3,1.4,6.5
			c-2,3.1-3.6,8.1-3.5,13.4c0,2.9,0.6,5.8,1.7,8.4c0.6,1.2,1.3,2.5,2.3,3.6c0.7,0.3,1.1,0.9,1.6,1.6c0.4,0.4,1,0.8,1.6,1.1
			c3.3,2.1,8,3.5,14.5,3.3c6.4,0,11-1.6,14.4-3.9c0.6-0.9,1.3-1.6,2.3-2c1.6-1.6,2.7-3.5,3.5-5.5c1.1-2.7,1.6-5.6,1.4-8.5
			c0-5-1.4-9.6-3.6-12.1c-1.7-2-1.3-5,0.7-6.6c2-1.7,5-1.3,6.6,0.7c3.3,4.1,5.6,10.9,5.7,18.1c0,4-0.7,8.1-2.1,12
			c-0.7,1.6-1.4,3.1-2.3,4.6c4.3,1.2,8.9,1.6,13,0.9c5.3-0.8,9.9-2.9,11.7-6.1l0,0c0.1-0.6,0.3-1.1,0.7-1.6c0.9-2.5,1.3-5.6,1.2-9.1
			c-0.2-9-3.3-20.4-9.1-31c-3.5-6.5-7.9-12.5-13.3-17.5c-0.1-0.1-0.2-0.2-0.3-0.3c-3.2-3-6.8-5.6-10.6-7.5
			c-5.7-2.9-11.9-4.6-18.7-4.5c-9.4,0.2-17.7,2.2-25,5.7C262,976.2,258.5,978.5,255.4,980.9L255.4,980.9z"/>
		<path id="XMLID_41_" class="st6" d="M253.3,970.9c2.7-1.8,5.6-3.5,8.6-4.8c8.4-3.9,17.9-6.2,28.7-6.5c8.5-0.2,16.3,1.9,23.2,5.5
			c1.2,0.7,2.5,1.3,3.6,2c-7.2-63.2,0.8-130.1,0.8-130.3c0.3-2.6,2.7-4.5,5.2-4.1c2.6,0.3,4.5,2.7,4.1,5.2c0,0.2-8.7,73,0.3,137.5
			c5.6,5.5,10.3,12,14,18.8c6.5,11.9,10,24.8,10.3,35.3c0.1,2.8-0.1,5.5-0.6,7.9c7.1,0.7,14.3,1,21.2,1c6.8,0,13.6-0.3,20.3-1
			c-0.4-2.5-0.6-5-0.6-7.8c0.2-10.5,3.8-23.4,10.3-35.3c3.7-6.8,8.5-13.4,14-18.8c9.1-64.5,0.3-137.3,0.3-137.5
			c-0.3-2.6,1.6-4.9,4.1-5.2c2.6-0.3,4.9,1.6,5.2,4.1c0,0.2,8,67.2,0.8,130.3c1.1-0.7,2.3-1.4,3.6-2c6.9-3.6,14.7-5.7,23.3-5.5
			c10.8,0.2,20.4,2.6,28.7,6.5c3,1.4,5.9,3,8.6,4.8c17.7-25.7,42.7-86.5,50-150.5c5-44,1.7-89.4-18.2-125.7
			c-12.8,3.6-38.7,1.9-65.1,0.2c-15.6-1-31.4-2-44.6-2c6.9,4.3,11.9,10,15.3,16.2c4.5,8.4,5.8,17.7,4.7,25.7c-0.4,2.9-1.1,5.6-2,8
			c-0.8,2-2.8,3.2-4.8,3c-7.1,0-18.4-1.1-28-6.7c-8.6-5-15.7-13.5-17.6-27.5c-2.8,1.1-5.8,1.8-9,1.8c-3.2,0-6.2-0.7-9-1.8
			c-1.9,14.2-9,22.5-17.6,27.5c-9.6,5.7-20.7,6.7-28,6.7c-2,0.1-4-1-4.8-3c-0.9-2.5-1.6-5.1-2-8c-1.1-8.1,0.2-17.4,4.7-25.7
			c3.3-6.1,8.2-11.8,15.3-16.2c-13,0-29,1-44.6,2c-26.3,1.7-52,3.3-65-0.1c-19.8,36.3-23.2,81.8-18.2,125.8
			C210.6,884.4,235.6,945.1,253.3,970.9L253.3,970.9z"/>
		<path id="XMLID_40_" class="st4" d="M324.7,874.6c-1.3,27.1-1.8,65.1,3.2,100.6c5.6,5.5,10.3,12,14,18.8
			c6.5,11.9,10,24.8,10.3,35.3c0.1,2.8-0.1,5.5-0.6,7.9c7.1,0.7,14.3,1,21.2,1c6.8,0,13.6-0.3,20.3-1c-0.4-2.5-0.6-5-0.6-7.8
			c0.2-10.5,3.8-23.4,10.3-35.3c3.7-6.8,8.5-13.4,14-18.8c5-35.5,4.6-73.7,3.2-100.6c-9.1-38.2-27.1-64.1-47.7-64.1
			C351.8,810.5,333.8,836.4,324.7,874.6L324.7,874.6z"/>
		<path id="XMLID_39_" class="st8" d="M324.4,881.7c-1.1,26.4-1,60.9,3.6,93.5c5.6,5.5,10.3,12,14,18.8c6.5,11.9,10,24.8,10.3,35.3
			c0.1,2.8-0.1,5.5-0.6,7.9c7.1,0.7,14.3,1,21.2,1c6.8,0,13.6-0.3,20.3-1c-0.4-2.5-0.6-5-0.6-7.8c0.2-10.5,3.8-23.4,10.3-35.3
			c3.7-6.8,8.5-13.4,14-18.8c4.1-29.2,4.6-59.9,3.9-85c0.3,12.4-14.4,64.7-49.1,64.7C336.8,955.1,324.4,882.1,324.4,881.7
			L324.4,881.7z"/>
		<path id="XMLID_38_" class="st6" d="M191.9,788.3c-15.6,9.5-52.5,37-45.8,84.2c7,50.1,24.1,85.2,30.4,96.8c2-1.2,4-2.3,6.2-3.3
			c8.4-3.9,17.9-6.2,28.7-6.5c7.8-0.2,14.9,1.6,21.4,4.6c2.8,1.3,5.5,2.9,8,4.7c-17.8-29.9-40-87.2-46.8-147.3
			C192.7,810.4,192,799.3,191.9,788.3L191.9,788.3z"/>
		<path id="XMLID_37_" class="st4" d="M291.4,417.9c-7.5,1.6-48,4.1-37.3-20.1c10.7-24.2,35.7-6.4,43.8,2.7
			C305.9,409.5,300.5,415.9,291.4,417.9L291.4,417.9z"/>
		<path id="XMLID_36_" d="M373.2,570.3c-10.6,0-34-13.4-34-28.3c0-7.7,17-11.9,34-12.1c17,0.2,34.1,4.5,34,12.1
			C407.3,556.9,383.9,570.3,373.2,570.3L373.2,570.3z"/>
		<path id="XMLID_35_" class="st4" d="M455.1,417.9c7.5,1.6,48,4.1,37.3-20.1c-10.7-24.2-35.7-6.4-43.8,2.7
			C440.6,409.5,445.9,415.9,455.1,417.9L455.1,417.9z"/>
		<path id="XMLID_34_" d="M276.2,457.9c15.3,1,27.6,15.5,27.6,30.1c0,14.6-3.8,18.3-21.5,18.2c-17.7-0.1-33.8-9.1-33.8-23.7
			C248.6,467.9,261,456.9,276.2,457.9L276.2,457.9z"/>
		<path id="XMLID_33_" d="M470.1,457.9c-15.3,1-27.6,15.5-27.6,30.1c0,14.6,3.8,18.3,21.5,18.2s33.8-9.1,33.8-23.7
			C497.8,467.9,485.5,456.9,470.1,457.9L470.1,457.9z"/>
		<path id="XMLID_9_" d="M191.9,788.3c-15.6,9.5-52.5,37-45.8,84.2c7,50.1,24.1,85.2,30.4,96.8c2-1.2,4-2.3,6.2-3.3
			c8.4-3.9,17.9-6.2,28.7-6.5c7.8-0.2,14.9,1.6,21.4,4.6c2.8,1.3,5.5,2.9,8,4.7c-17.8-29.9-40-87.2-46.8-147.3
			C192.7,810.4,192,799.3,191.9,788.3L191.9,788.3z M253.3,970.9c2.7-1.8,5.6-3.5,8.6-4.8c8.4-3.9,17.9-6.2,28.7-6.5
			c8.5-0.2,16.3,1.9,23.2,5.5c1.2,0.7,2.5,1.3,3.6,2c-7.2-63.2,0.8-130.1,0.8-130.3c0.3-2.6,2.7-4.5,5.2-4.1
			c2.6,0.3,4.5,2.7,4.1,5.2c0,0.2-8.7,73,0.3,137.5c5.6,5.5,10.3,12,14,18.8c6.5,11.9,10,24.8,10.3,35.3c0.1,2.8-0.1,5.5-0.6,7.9
			c7.1,0.7,14.3,1,21.2,1c6.8,0,13.6-0.3,20.3-1c-0.4-2.5-0.6-5-0.6-7.8c0.2-10.5,3.8-23.4,10.3-35.3c3.7-6.8,8.5-13.4,14-18.8
			c9.1-64.5,0.3-137.3,0.3-137.5c-0.3-2.6,1.6-4.9,4.1-5.2c2.6-0.3,4.9,1.6,5.2,4.1c0,0.2,8,67.2,0.8,130.3c1.1-0.7,2.3-1.4,3.6-2
			c6.9-3.6,14.7-5.7,23.3-5.5c10.8,0.2,20.4,2.6,28.7,6.5c3,1.4,5.9,3,8.6,4.8c17.7-25.7,42.7-86.5,50-150.5
			c5-44,1.7-89.4-18.2-125.7c-12.8,3.6-38.7,1.9-65.1,0.2c-15.6-1-31.4-2-44.6-2c6.9,4.3,11.9,10,15.3,16.2
			c4.5,8.4,5.8,17.7,4.7,25.7c-0.4,2.9-1.1,5.6-2,8c-0.8,2-2.8,3.2-4.8,3c-7.1,0-18.4-1.1-28-6.7c-8.6-5-15.7-13.5-17.6-27.5
			c-2.8,1.1-5.8,1.8-9,1.8c-3.2,0-6.2-0.7-9-1.8c-1.9,14.2-9,22.5-17.6,27.5c-9.6,5.7-20.7,6.7-28,6.7c-2,0.1-4-1-4.8-3
			c-0.9-2.5-1.6-5.1-2-8c-1.1-8.1,0.2-17.4,4.7-25.7c3.3-6.1,8.2-11.8,15.3-16.2c-13,0-29,1-44.6,2c-26.3,1.7-52,3.3-65-0.1
			c-19.8,36.3-23.2,81.8-18.2,125.8C210.6,884.4,235.6,945.1,253.3,970.9L253.3,970.9z M213.2,690.2c-0.9-0.9-1.7-1.8-2.3-2.9
			c-2.8-4.6-2.8-9.9-0.7-15.6c1.8-4.9,5.2-10.1,9.6-14.9c5.7-6.4,13.3-12.4,21.2-16.5c-45-28-75.1-65.1-79.7-89.2
			c-4.7-25.2,5.2-67,15.4-99.9c-56.8-18.1-95.3-40-118-61.8c-13.3-12.7-21.3-25.5-24.6-37.5c-3.5-12.5-1.8-24.2,4.5-34.1
			c4.8-7.7,12.4-14.3,22.4-19.3c49.4-24.7,87.1-73.2,119.2-114.3c31.2-40.1,57.2-73.4,85.1-73.4c24.5,0,39.1,10.6,49.6,24.8
			c4.7-1.4,11.1-3.2,19.3-4.8c10.3-1.9,23.2-3.5,38.2-3.5c15.3,0,28.2,1.6,38.4,3.5c8,1.6,14.5,3.3,19.1,4.8
			c10.5-14.3,25-24.8,49.5-24.8c27.9,0,53.9,33.3,85.1,73.4c32.1,41.1,69.9,89.6,119.2,114.3c10,5,17.6,11.6,22.4,19.3
			c6.2,9.9,7.9,21.6,4.6,34.1c-3.2,12-11.4,24.8-24.6,37.5c-22.7,21.8-61.2,43.8-118,61.8c10.1,33,20.1,74.8,15.4,99.9
			c-4.3,23.3-32.8,58.8-75.3,86.5c9.6,5.6,18.5,15,23.6,24.5c1.9,3.6,3.3,7.2,4.1,10.7c0.8,3.8,0.8,7.5-0.2,10.7
			c-0.8,2.6-2.1,4.8-4,6.7c14.3,26,20.4,56.3,21.3,87.4c12.3,6.6,63.4,37.8,55.3,96.4c-0.2,1.9-0.6,3.7-0.8,5.6
			c14.3-6.9,26.5-21.4,34.3-41.4c8.6-22,11.7-50.6,6.5-83.2c-0.4-2.6,1.3-5,3.9-5.3c1.7-0.2,3.3,0.4,4.3,1.7
			c21.8,26.2,34,53.8,37.9,80.6c3.6,24,0.7,47.1-7.6,68c-8.1,20.8-21.6,39.4-39,53.9c-17.4,14.6-38.9,25.2-63.1,30.2
			c1.7,2,3.1,4.1,4.5,6.2c6.1,9.9,9.4,21.4,9.1,32.6c-0.1,7.5-1.8,14.8-5,21.7c-0.2,0.3-0.3,0.7-0.4,0.9c-2.5,4.1-8.5,7.7-15.8,9.2
			c-6.7,1.4-14.6,1.1-21.7-2c-0.4,0.3-0.8,0.6-1.2,0.9c-4.8,3-11.1,4.9-19.6,4.9c-6.9-0.1-12.9-0.9-17.7-2.8c-3.3-1.2-6.1-3-8.2-5.1
			c-2.9,1.8-6.5,3.3-10.5,4.1c-6.7,1.4-14.6,1.1-21.7-2c-0.4,0.3-0.8,0.6-1.2,0.9c-4.8,3-11.1,4.9-19.6,4.9
			c-8.1-0.1-14.5-2.1-19.2-5.2c-6.8,3-14.6,3.8-21.5,2.9c-7.5-1-14-4.2-17.7-9.4c-7.8,0.8-15.7,1.2-23.8,1.3
			c-8.1,0-16.4-0.3-24.6-1.2c-3.7,5-10.1,8.2-17.6,9.2c-6.9,1-14.7,0.1-21.5-2.9c-4.7,3.2-11,5.2-19.2,5.2
			c-8.5,0.1-14.9-1.8-19.6-4.9c-0.4-0.3-0.9-0.6-1.2-0.9c-7.1,3.1-15,3.3-21.7,2c-4-0.9-7.7-2.3-10.5-4.1c-2.2,2.2-5,3.9-8.2,5.1
			c-4.8,1.8-10.8,2.7-17.7,2.8c-8.5,0.1-14.9-1.8-19.6-4.9c-0.4-0.3-0.9-0.6-1.2-0.9c-7.1,3.1-15,3.3-21.7,2
			c-7.2-1.6-13.4-5.1-15.8-9.2c-0.1-0.2-0.3-0.6-0.4-0.9c-3.2-6.9-4.9-14.3-5-21.7c-0.2-11.3,2.9-22.7,9.1-32.6
			c3.5-5.6,7.8-10.7,13-15c-6.2-11.3-24.6-48.2-32-101.1c-8.1-58.6,42.9-89.8,55.2-96.4C192.8,746.4,199,716.2,213.2,690.2
			L213.2,690.2z M255.4,980.9c-0.1,0.1-0.1,0.1-0.2,0.2l-0.1,0.1c-1,0.8-2,1.7-2.9,2.5c-0.2,0.4-0.6,0.8-0.9,1.1
			c-0.3,0.2-0.6,0.4-0.9,0.7c-2.8,2.9-5.3,6-7.4,9.4c-5.2,8.4-7.9,18.1-7.7,27.5c0.1,6.1,1.4,12.3,4.1,17.9l0.1,0.1l0.1,0.1
			c0.1,0.1,0.1,0.1,0.2,0.2c1.3,1.8,4.9,3.5,9.4,4.5c4.1,0.9,8.8,0.9,13.1-0.3c-0.3-0.6-0.7-1.2-0.9-1.9c-1.8-3.9-2.6-8-2.6-12.1
			c-0.1-7.1,2.1-14.2,4.9-18.6c1.4-2.2,4.3-2.8,6.5-1.4c2.2,1.4,2.8,4.3,1.4,6.5c-2,3.1-3.6,8.1-3.5,13.4c0,2.9,0.6,5.8,1.7,8.4
			c0.6,1.2,1.3,2.5,2.3,3.6c0.7,0.3,1.1,0.9,1.6,1.6c0.4,0.4,1,0.8,1.6,1.1c3.3,2.1,8,3.5,14.5,3.3c6.4,0,11-1.6,14.4-3.9
			c0.6-0.9,1.3-1.6,2.3-2c1.6-1.6,2.7-3.5,3.5-5.5c1.1-2.7,1.6-5.6,1.4-8.5c0-5-1.4-9.6-3.6-12.1c-1.7-2-1.3-5,0.7-6.6
			c2-1.7,5-1.3,6.6,0.7c3.3,4.1,5.6,10.9,5.7,18.1c0,4-0.7,8.1-2.1,12c-0.7,1.6-1.4,3.1-2.3,4.6c4.3,1.2,8.9,1.6,13,0.9
			c5.3-0.8,9.9-2.9,11.7-6.1l0,0c0.1-0.6,0.3-1.1,0.7-1.6c0.9-2.5,1.3-5.6,1.2-9.1c-0.2-9-3.3-20.4-9.1-31
			c-3.5-6.5-7.9-12.5-13.3-17.5c-0.1-0.1-0.2-0.2-0.3-0.3c-3.2-3-6.8-5.6-10.6-7.5c-5.7-2.9-11.9-4.6-18.7-4.5
			c-9.4,0.2-17.7,2.2-25,5.7C262,976.2,258.5,978.5,255.4,980.9L255.4,980.9z M403.2,1039.2c0.1,0.1,0.1,0.3,0.2,0.4l0.1,0.3
			l0.1,0.2c1.8,3.2,6.4,5.3,11.7,6.1c4.2,0.6,8.8,0.3,13-0.9c-0.9-1.4-1.7-3-2.3-4.6c-1.6-3.9-2.2-8-2.1-12
			c0.1-7.1,2.3-13.9,5.7-18.1c1.7-2,4.6-2.3,6.6-0.7c2,1.7,2.3,4.6,0.7,6.6c-2.1,2.6-3.6,7.1-3.6,12.1c0,2.9,0.4,5.8,1.4,8.5
			c0.8,2,1.9,3.8,3.5,5.5c0.9,0.3,1.8,1,2.3,2c3.3,2.3,7.9,3.9,14.4,3.9c6.5,0,11.1-1.2,14.5-3.3c0.6-0.3,1.1-0.8,1.6-1.1
			c0.4-0.7,1-1.2,1.6-1.6c1-1.1,1.7-2.3,2.3-3.6c1.2-2.6,1.7-5.5,1.7-8.4c0-5.2-1.4-10.4-3.5-13.4c-1.4-2.2-0.8-5.1,1.4-6.5
			c2.2-1.4,5.1-0.8,6.5,1.4c2.9,4.5,5,11.5,4.9,18.6c0,4.1-0.8,8.2-2.6,12.1c-0.3,0.7-0.6,1.2-0.9,1.9c4.3,1.2,9.1,1.2,13.1,0.3
			c4.5-0.9,7.9-2.7,9.4-4.5c0-0.1,0.1-0.1,0.2-0.2l0.1-0.1l0.1-0.1c2.7-5.7,4-11.8,4.1-17.9c0.2-9.5-2.5-19.2-7.7-27.5
			c-2.1-3.3-4.6-6.5-7.4-9.4c-0.3-0.2-0.7-0.4-0.9-0.7c-0.3-0.3-0.7-0.7-0.9-1.1c-0.9-0.9-1.9-1.7-2.9-2.5l-0.1-0.1
			c-0.1-0.1-0.2-0.1-0.2-0.2c-3.1-2.5-6.7-4.7-10.5-6.5c-7.2-3.3-15.6-5.5-25-5.7c-6.8-0.1-13.1,1.6-18.7,4.5
			c-3.8,2-7.4,4.6-10.6,7.5c-0.1,0.1-0.2,0.2-0.3,0.3c-5.2,5-9.7,11-13.3,17.5c-5.8,10.6-8.9,22-9.1,31
			C401.8,1033.5,402.2,1036.7,403.2,1039.2L403.2,1039.2z M230.4,1043.2c-2.9-6.6-4.3-13.6-4.6-20.6c-0.2-11.3,2.9-22.7,9.1-32.6
			c1.9-3,4-5.9,6.5-8.6c-3.8-3.6-7.9-6.6-12.5-8.7c-5.2-2.5-11-3.8-17.3-3.7c-9.4,0.2-17.7,2.2-25,5.7c-3.1,1.4-6.1,3.2-8.8,5.1
			c-0.1,0.1-0.2,0.2-0.3,0.3c-5.7,4.1-10.3,9.2-13.7,14.8c-5.2,8.4-7.9,18.1-7.7,27.5c0.1,6.1,1.4,12.3,4.1,17.9l0.1,0.1
			c1.1,1.9,4.8,3.8,9.6,4.8c4.1,0.9,8.8,0.9,13.1-0.3c-0.3-0.6-0.7-1.2-0.9-1.9c-1.8-3.9-2.6-8-2.6-12.1c-0.1-7.1,2.1-14.2,4.9-18.6
			c1.4-2.2,4.3-2.8,6.5-1.4c2.2,1.4,2.8,4.3,1.4,6.5c-2,3.1-3.6,8.1-3.5,13.4c0,2.9,0.6,5.8,1.7,8.4c0.6,1.2,1.3,2.5,2.3,3.6
			c0.7,0.3,1.1,0.9,1.6,1.6c0.4,0.4,1,0.8,1.6,1.1c3.3,2.1,8,3.5,14.5,3.3c5.8,0,10.7-0.8,14.5-2.1
			C227.3,1045.8,229.1,1044.5,230.4,1043.2L230.4,1043.2z M378,585.5c0,3.9,2,7,5.1,9.4c3.1,2.3,7.5,3.9,12.3,4.6
			c4.9,0.7,10.3,0.4,15.3-0.9c8-2.1,15.2-6.7,18.2-14.3c1-2.5,3.7-3.6,6.1-2.6c2.5,1,3.6,3.7,2.6,6.1c-4.3,10.6-13.9,17-24.6,19.8
			c-6.2,1.6-12.8,1.9-18.8,1.1c-6.2-0.9-12-3-16.5-6.2c-1.6-1.1-3-2.5-4.2-3.9c-1.2,1.4-2.6,2.8-4.2,3.9c-4.5,3.3-10.3,5.5-16.5,6.2
			c-6,0.9-12.7,0.4-18.8-1.1c-10.7-2.8-20.3-9.2-24.6-19.8c-1-2.5,0.2-5.1,2.6-6.1c2.5-1,5.1,0.2,6.1,2.6
			c3.1,7.6,10.3,12.1,18.2,14.3c5,1.3,10.4,1.6,15.3,0.9c4.8-0.7,9-2.2,12.3-4.6c3.1-2.3,5.1-5.5,5.1-9.4v-15.2
			c0-2.6,2.1-4.7,4.7-4.7c2.6,0,4.7,2.1,4.7,4.7L378,585.5L378,585.5z M273.4,344.1c2.5-0.9,5.1,0.3,6,2.8s-0.3,5.1-2.8,6
			c-4.5,1.7-8.4,2-11.7,1.3c-3.9-0.8-6.9-2.8-9.1-5.7c-2-2.7-3.2-6-3.6-9.5c-0.2-1.7-0.2-3.3,0-5c-1.7-0.1-3.2-0.6-4.8-1.1
			c-1.9-0.8-3.8-2-5.3-3.5c-1.6-1.4-2.9-3.1-3.9-5c-2.2-4-3.2-9-2-14c-4-5.2-8.9-10.5-13.3-13.7c-1.6-1.2-3-2.1-4.1-2.6
			c-3.7,6.2-5.8,19.9-6.1,36.4c-0.4,17.8,1.4,38.6,5.7,56.7c0.6,2.6-1,5-3.5,5.7c-2.5,0.7-5-1-5.7-3.5c-4.5-18.8-6.2-40.4-5.9-59.1
			c0.4-19.5,3.5-36,8.9-43.1c0.4-0.6,1-1.1,1.6-1.4c2.2-1.6,5-1.7,8-0.7l0.2,0.1c2,0.8,4.3,2.1,6.7,4c5.5,4.1,11.8,10.9,16.5,17.4
			c1,1.3,1.3,3.1,0.7,4.7c-1.2,2.9-0.8,6,0.7,8.5c0.6,1,1.2,1.9,2.1,2.6c0.8,0.7,1.7,1.2,2.6,1.7c1.7,0.7,3.7,0.7,5.6-0.3l0,0
			c1.3-0.8,2.9-0.8,4.3-0.1c2.3,1.1,3.2,4,2.1,6.2c-1.2,2.5-1.7,5.3-1.4,8c0.2,1.9,0.8,3.6,1.8,4.8c0.8,1.1,2,1.9,3.5,2.1
			C268.5,345.3,270.7,345.1,273.4,344.1L273.4,344.1z M372.3,237.7c-41.2,0-56.7-28.1-70.3-52.8c-9.5-17.3-17.9-32.6-33.9-32.6
			c-20.2,0-43.1,30.3-70.5,66.5c-30.3,40.1-65.9,87-111.3,110.1c-6,3-10.7,6.8-14.2,11c-3.7,4.7-5.8,10-6.1,15.8
			c-0.3,5.9,1.1,12.5,4.6,19.3c4.8,9.4,13.1,19.2,25.5,29.1c0.9,0.7,1.3,1.6,1.7,2.6c20.9,12.6,47.9,24.6,81.8,35.4
			c6.7-20.7,12.8-36.7,14.3-40.1c0.4-7.7-0.6-19.9-1.8-34.1c-3.6-40.8-8.2-96.2,18.3-111.5c25.1-14.5,67.2,25,94.3,50.3
			c8.9,8.2,16,14.9,19.7,17.2c9.5,5.7,29.3,8.6,49.1,8.6c19.2,0,38-2.8,47-8.6c3.7-2.3,10.5-8.8,18.9-16.7
			c27.1-25.3,69.8-65.3,94.9-50.8c26.6,15.4,21.8,70.8,18.3,111.5c-1.2,14.2-2.2,26.4-1.8,34.1c1.3,3.5,7.6,19.4,14.3,40.2
			c33.8-10.7,60.8-22.8,81.7-35.3c0.2-1,0.8-1.9,1.7-2.7c12.4-9.9,20.7-19.7,25.5-29.1c3.5-6.8,5-13.4,4.6-19.3
			c-0.3-5.8-2.5-11.1-6.1-15.8c-3.3-4.2-8.1-8-14.2-11c-45.5-23.1-81-70-111.3-110.1c-27.4-36.2-50.4-66.5-70.5-66.5
			c-15.8,0-24.3,15.4-33.9,32.6C429,209.5,413.5,237.7,372.3,237.7L372.3,237.7z M62.4,379.7l-0.2-0.4c-4.2-8.4-6-16.5-5.6-24.1
			c0.4-7.8,3.2-14.9,8.2-21.1c4.2-5.3,10-9.9,17.3-13.6c43.5-22.1,78.3-68.1,108.1-107.4c28.9-38.2,53.1-70.3,78-70.3
			c21.4,0,31.1,17.7,42.1,37.4c12.4,22.4,26.4,47.9,62.2,47.9c35.7,0,49.7-25.5,62.2-47.9c10.9-19.8,20.7-37.4,42-37.4
			c24.8,0,49.1,32.1,78,70.3c29.7,39.3,64.5,85.3,108.1,107.4c7.2,3.7,13,8.2,17.3,13.6c4.9,6.2,7.7,13.4,8.2,21.1
			c0.4,7.6-1.3,15.7-5.6,24.1l-0.3,0.7c10.5-10.6,16.8-21.1,19.5-30.6c2.7-9.9,1.4-18.9-3.5-26.6c-3.9-6.2-10.3-11.7-18.7-15.9
			c-51.3-25.7-89.8-75.1-122.5-116.9c-29.6-38.1-54.4-69.8-77.8-69.8c-34.3,0-46.5,25.9-57.7,49.9c-11,23.6-21.4,45.7-49.2,45.7
			s-38.2-22.1-49.2-45.7c-11.3-24.1-23.4-49.9-57.7-49.9c-23.4,0-48,31.6-77.8,69.8c-32.9,41.8-71.3,91.1-122.6,116.9
			c-8.5,4.2-14.7,9.6-18.6,15.8c-4.8,7.7-6.1,16.8-3.5,26.6C45.7,358.7,52,369.1,62.4,379.7L62.4,379.7z M596.5,886.1
			c0-0.2,0.1-0.3,0.1-0.6c0.8-4.2,1.4-8.6,2.1-13c6.6-47.2-30.2-74.8-45.8-84.2c-0.1,11-0.9,22.2-2.1,33.1
			c-6.9,60.1-29.1,117.6-46.9,147.3c2.6-1.8,5.2-3.3,8-4.7c6.5-3,13.6-4.8,21.4-4.6c10.8,0.2,20.4,2.6,28.7,6.5
			c2.1,1,4.2,2.1,6.2,3.3C574.1,958.7,588.5,928.9,596.5,886.1L596.5,886.1z M572.3,984.1c-0.2-0.1-0.3-0.3-0.4-0.4
			c-1.4-1.3-2.9-2.6-4.5-3.7c-0.1-0.1-0.2-0.2-0.4-0.3c-2.7-2-5.7-3.7-8.8-5.1c-7.2-3.3-15.6-5.5-25-5.7c-6.2-0.1-12,1.2-17.3,3.7
			c-4.6,2.1-8.8,5.1-12.5,8.7c2.5,2.7,4.6,5.6,6.5,8.6c6.1,9.9,9.4,21.4,9.1,32.6c-0.1,7-1.7,14-4.6,20.6c1.2,1.4,3.1,2.6,5.3,3.5
			c3.8,1.4,8.7,2.1,14.5,2.1c6.5,0,11.1-1.2,14.5-3.3c0.6-0.3,1.1-0.8,1.6-1.1c0.4-0.7,1-1.2,1.6-1.6c1-1.1,1.7-2.3,2.3-3.6
			c1.2-2.6,1.7-5.5,1.7-8.4c0-5.2-1.4-10.4-3.5-13.4c-1.4-2.2-0.8-5.1,1.4-6.5c2.2-1.4,5.1-0.8,6.5,1.4c2.9,4.5,5,11.4,4.9,18.6
			c0,4.1-0.8,8.2-2.6,12.1c-0.3,0.7-0.6,1.2-0.9,1.9c4.3,1.2,9.1,1.2,13.1,0.3c4.8-1,8.5-2.9,9.6-4.8l0.1-0.1
			c2.7-5.7,4-11.8,4.1-17.9c0.2-9.5-2.5-19.2-7.7-27.5C578.6,990.9,575.7,987.4,572.3,984.1L572.3,984.1z M576.7,975.4
			c25.1-4.1,47.1-14.5,64.8-29.2c16.3-13.6,28.7-30.8,36.3-50.1c7.6-19.4,10.4-41,7-63.3c-3-20.6-11.3-41.8-25.5-62.4
			c2.1,27.3-1.6,51.4-9,70.9c-9.7,25.1-26,42.5-45,49c-8.5,44-23.7,74.5-29.3,84.6C576.2,975,576.4,975.2,576.7,975.4L576.7,975.4z
			 M349.4,695.3c-2.5,0.6-4.7,1.2-6.8,2c-9.2,3.6-15.3,9.4-18.7,15.9c-3.5,6.6-4.6,13.8-3.7,20.2c0.1,1,0.3,1.9,0.6,2.8
			c5.9-0.3,13.6-1.6,20.2-5.3c7.2-4.2,13-12,13.4-26C352,702.1,350.3,698.9,349.4,695.3L349.4,695.3z M390.2,704.9
			c0.3,13.9,6.2,21.7,13.4,26c6.6,3.8,14.3,5,20.2,5.3c0.2-0.9,0.4-1.9,0.6-2.8c0.9-6.4-0.1-13.6-3.7-20.2
			c-3.5-6.6-9.6-12.4-18.7-15.9c-2.1-0.8-4.3-1.4-6.8-2C394.2,698.9,392.6,702.1,390.2,704.9L390.2,704.9z M250.6,646
			c-8.7,3.5-17.5,10-23.8,17c-3.7,4-6.4,8.1-7.8,11.9c-1.1,3-1.2,5.6-0.1,7.5c0.6,0.9,1.3,1.7,2.7,2.3c8.1,4.3,35.9,2.6,64.3,0.8
			c23.8-1.6,48.1-3.1,63.6-1c0.4-2,1.2-3.9,2.2-5.6l0.2-0.3C314.3,674.9,279.8,662.5,250.6,646L250.6,646z M361,669.7
			c0.8-0.1,1.6-0.1,2.3,0.1c2.9,0.1,5.9,0.2,8.9,0.2c3,0,5.9-0.1,8.9-0.2c0.8-0.2,1.6-0.2,2.3-0.1c42.1-2.2,80.7-16.6,112.1-35.5
			c44.5-26.9,74.2-62.4,78.4-84.8C582,507,544.5,411.5,542,405.1c-0.2-0.6-0.4-1.1-0.4-1.7c-0.7-8.4,0.4-21.3,1.8-36.2
			c3.3-38.3,7.8-90.3-13.6-102.6c-19.2-11.1-58.8,26-83.9,49.5c-8.8,8.2-15.9,14.9-20.4,17.7c-10.7,6.8-31.4,10-52,10
			c-21.4,0-43-3.5-53.9-9.9c-4.6-2.8-12-9.7-21.3-18.4c-25.1-23.4-64.2-59.9-83.2-49c-21.4,12.4-16.9,64.3-13.6,102.6
			c1.3,14.9,2.5,27.9,1.8,36.2l0,0c0,0.4-0.1,0.9-0.3,1.3c-0.1,0.3-40.4,100.7-32.2,144.6c4.2,22.5,34,57.9,78.4,84.8
			C280.3,653,319,667.5,361,669.7L361,669.7z M363.2,679.2c-1.3,1.1-2.5,2.6-3.3,4c-1.1,1.9-1.7,4.2-1.7,6.6c0,3.9,1.6,7.4,4.1,9.8
			c2.6,2.6,6,4.1,10,4.1c3.9,0,7.5-1.6,10-4.1c2.6-2.6,4.1-6,4.1-9.8c0-2.5-0.6-4.7-1.7-6.6c-0.9-1.6-2-2.9-3.3-4
			c-3,0.1-6,0.2-9,0.2C369.3,679.4,366.3,679.3,363.2,679.2L363.2,679.2z M392.8,678.4l0.2,0.3c1,1.8,1.7,3.7,2.2,5.7
			c15.5-2.1,39.8-0.6,63.6,1c28.5,1.9,56.2,3.7,64.3-0.8c1.8-1,2.9-2.3,3.3-4c0.6-1.7,0.4-3.8,0-6l0,0c-0.6-2.6-1.7-5.3-3.2-8.2
			c-5.2-9.8-15.2-19.5-24.7-23.2C468.5,661,432.2,674.8,392.8,678.4L392.8,678.4z M340.6,262.2c1.7-1.7,3.7-2.8,5.9-3.5
			c0.3-0.1,0.7-0.2,1-0.2c0.1-0.3,0.1-0.7,0.2-1c0.6-2.1,1.8-4.2,3.5-5.9c2.6-2.6,6-3.9,9.5-3.9l0,0c3.5,0,6.8,1.3,9.5,3.9
			c0.9,0.9,1.7,1.9,2.2,3c0.6-1.1,1.3-2.1,2.2-3c2.6-2.6,6-3.9,9.5-3.9c3.5,0,6.8,1.3,9.5,3.9c1.7,1.7,2.8,3.7,3.5,5.9
			c0.1,0.3,0.2,0.7,0.2,1c0.3,0.1,0.7,0.1,1,0.2c2.1,0.6,4.2,1.8,5.9,3.5c2.6,2.6,3.9,6,3.9,9.5c0,3.5-1.3,6.8-3.9,9.5l0,0
			c-0.9,0.9-1.9,1.7-3,2.2c1.1,0.6,2.1,1.3,3,2.2c2.6,2.6,3.9,6,3.9,9.5s-1.3,6.8-3.9,9.5c-1.7,1.7-3.7,2.8-5.9,3.5
			c-0.3,0.1-0.7,0.2-1,0.2c-0.1,0.3-0.1,0.7-0.2,1c-0.6,2.1-1.8,4.2-3.5,5.9c-2.6,2.6-6,3.9-9.5,3.9c-3.5,0-6.8-1.3-9.5-3.9
			c-0.9-0.9-1.7-1.9-2.2-3c-0.6,1.1-1.3,2.1-2.2,3l0,0c-2.6,2.6-6,3.9-9.5,3.9s-6.9-1.3-9.5-3.9c-1.7-1.7-2.8-3.7-3.5-5.9
			c-0.1-0.3-0.2-0.7-0.2-1c-0.3-0.1-0.7-0.1-1-0.2c-2.1-0.6-4.2-1.8-5.9-3.5c-2.6-2.6-3.9-6-3.9-9.5s1.3-6.9,3.9-9.5
			c0.9-0.9,1.9-1.7,3-2.2c-1.1-0.6-2.1-1.3-3-2.2c-2.6-2.6-3.9-6-3.9-9.5C336.6,268.2,338,264.8,340.6,262.2L340.6,262.2
			L340.6,262.2z M349,267.8c-0.7,0.2-1.2,0.6-1.8,1c-0.8,0.8-1.1,1.8-1.1,2.8c0,1,0.4,2,1.1,2.8c0.8,0.8,1.8,1.2,2.8,1.2
			c0.9,0,1.9-0.3,2.7-1l0.1-0.1c1.8-1.8,4.8-1.8,6.7,0l5.6,5.6c1.8,1.8,1.8,4.8,0,6.7l-5.6,5.6l0,0c-1.8,1.8-4.8,1.8-6.6,0
			c-0.8-0.8-1.8-1.1-2.8-1.1c-1,0-2,0.4-2.8,1.2c-0.8,0.8-1.1,1.8-1.1,2.8c0,1,0.3,2,1.1,2.8c0.6,0.6,1.1,0.9,1.7,1
			c0.7,0.2,1.3,0.2,2,0c0.7-0.2,1.4-0.2,2.2,0c2.6,0.6,4,3.1,3.5,5.7c-0.1,0.7-0.1,1.3,0,2.1c0.2,0.6,0.6,1.2,1,1.7
			c0.8,0.8,1.8,1.1,2.8,1.1c1,0,2-0.3,2.8-1.1l0,0c0.8-0.8,1.1-1.8,1.2-2.8c0-0.9-0.3-1.9-1-2.7l-0.1-0.1c-1.8-1.8-1.8-4.8,0-6.7
			l5.6-5.6c1.8-1.8,4.8-1.8,6.7,0l5.6,5.6l0,0c1.8,1.8,1.8,4.8,0,6.6c-0.8,0.8-1.1,1.8-1.1,2.8c0,1,0.4,2,1.2,2.8
			c0.8,0.8,1.8,1.1,2.8,1.1c1,0,2-0.3,2.8-1.1c0.6-0.6,0.9-1.1,1-1.7c0.2-0.7,0.2-1.3,0-2c-0.2-0.7-0.2-1.4,0-2.2
			c0.6-2.6,3.1-4,5.7-3.5c0.7,0.1,1.3,0.1,2.1,0c0.6-0.2,1.2-0.6,1.7-1c0.8-0.8,1.1-1.8,1.1-2.8c0-1-0.3-2-1.1-2.8
			c-0.8-0.8-1.8-1.2-2.8-1.2c-1,0-1.9,0.3-2.7,1l-0.1,0.1c-1.8,1.8-4.8,1.8-6.7,0l-5.6-5.6c-1.8-1.8-1.8-4.8,0-6.7l5.6-5.6l0,0
			c1.8-1.8,4.8-1.8,6.6,0c0.8,0.8,1.8,1.1,2.8,1.1c1,0,2-0.4,2.8-1.2l0,0c0.8-0.8,1.1-1.8,1.1-2.8s-0.3-2-1.1-2.8
			c-0.6-0.6-1.1-0.9-1.7-1c-0.7-0.2-1.3-0.2-2,0c-0.7,0.2-1.4,0.2-2.2,0c-2.6-0.6-4-3.1-3.5-5.7c0.1-0.7,0.1-1.3,0-2.1
			c-0.2-0.7-0.6-1.2-1-1.7c-0.8-0.8-1.8-1.1-2.8-1.1c-1,0-2,0.3-2.8,1.1s-1.2,1.8-1.2,2.8c0,0.9,0.3,1.9,1,2.7l0.1,0.1
			c1.8,1.8,1.8,4.8,0,6.7l-5.6,5.6c-1.8,1.8-4.8,1.8-6.7,0l-5.6-5.6l0,0c-1.8-1.8-1.8-4.8,0-6.6c0.8-0.8,1.1-1.8,1.1-2.8
			s-0.4-2-1.2-2.8c-0.8-0.8-1.8-1.1-2.8-1.1l0,0c-1,0-2,0.4-2.8,1.2c-0.6,0.6-0.9,1.1-1,1.7c-0.2,0.7-0.2,1.3,0,2
			c0.2,0.7,0.2,1.4,0,2.2c-0.6,2.6-3.1,4-5.7,3.5C350.3,267.6,349.7,267.7,349,267.8L349,267.8z M467.9,352.9
			c-2.5-0.9-3.7-3.6-2.8-6s3.6-3.7,6-2.8c2.7,1,4.9,1.2,6.7,0.9c1.4-0.3,2.7-1.1,3.5-2.1c1-1.2,1.6-2.9,1.8-4.8
			c0.3-2.7-0.2-5.6-1.4-8c-1.1-2.3-0.2-5.1,2.1-6.2c1.4-0.7,3.1-0.7,4.3,0.1l0,0c1.9,1,3.8,1,5.6,0.3c0.9-0.3,1.8-0.9,2.6-1.7
			c0.8-0.8,1.6-1.7,2.1-2.6c1.3-2.5,1.8-5.6,0.7-8.5c-0.7-1.7-0.3-3.5,0.7-4.7c4.7-6.5,11-13.1,16.5-17.4c2.5-1.8,4.7-3.2,6.7-4
			l0.2-0.1c3-1.1,5.7-1,8,0.7c0.6,0.4,1.1,0.9,1.6,1.4c5.3,7.1,8.5,23.6,8.9,43.1c0.4,18.6-1.4,40.1-5.9,59.1
			c-0.6,2.6-3.1,4.1-5.7,3.5c-2.6-0.6-4.1-3.1-3.5-5.7c4.2-18.2,6-38.9,5.7-56.7c-0.3-16.5-2.5-30.2-6.1-36.4
			c-1.2,0.4-2.6,1.3-4.1,2.6c-4.3,3.2-9.2,8.5-13.3,13.7c1.2,5,0.3,9.9-2,14c-1,1.9-2.3,3.6-3.9,5c-1.6,1.4-3.5,2.6-5.3,3.5
			c-1.6,0.7-3.1,1-4.8,1.1c0.2,1.7,0.2,3.3,0,5c-0.3,3.5-1.6,6.8-3.6,9.5c-2.1,2.8-5.2,4.9-9.1,5.7
			C476.2,354.9,472.3,354.6,467.9,352.9L467.9,352.9z M335.8,139.9c-6.2,1.2-11.5,2.6-15.6,3.8c4.2,7.1,7.8,14.8,11.4,22.3
			c9.7,20.8,18.8,40.2,40.8,40.2c22,0,31.1-19.5,40.8-40.2c3.6-7.5,7.1-15.2,11.4-22.3c-4-1.2-9.1-2.6-15.4-3.7
			c-9.7-1.9-22.1-3.3-36.8-3.3C357.8,136.5,345.5,138.1,335.8,139.9L335.8,139.9z"/>
		<path id="XMLID_8_" class="st4" d="M267.1,466.5c3.9,0,7.1,3.9,7.1,8.7s-3.1,8.7-7.1,8.7c-3.9,0-7.1-3.9-7.1-8.7
			S263.2,466.5,267.1,466.5L267.1,466.5z"/>
		<path id="XMLID_7_" class="st4" d="M479.4,466.5c3.9,0,7,3.9,7,8.7s-3.1,8.7-7,8.7c-3.9,0-7.1-3.9-7.1-8.7
			C472.3,470.4,475.5,466.5,479.4,466.5L479.4,466.5z"/>
	</g>
	<use xlink:href="#XMLID_1_"  style="overflow:visible;fill:none;stroke:#000000;stroke-width:11;stroke-miterlimit:10;"/>
</g>
</svg>
